# xmcd CD database file
# Copyright (C) 1993-1998 Ti Kan
# 
# Track frame offsets:
#     150
#     18650
#     37535
#     54862
#     73945
#     91730
#     112322
#     125535
#     144860
#     162752
#     185147
#     204100
# 
# Disc length: 2955 seconds
# 
# Revision: 1
# Processed by: cddbd v1.4b41PL1 Copyright (c) Steve Scherf et al.
# Submitted via: DiscPlay 4.0.4
# 
DISCID=9c0b890c
DTITLE=Countdown Dance Masters - Ultimate Dance Trax [CD2]
DYEAR=1900
DGENRE=
TTITLE0=Children
TTITLE1=Stayin' Alive
TTITLE2=Magic Carpet Ride
TTITLE3=Captain Jack
TTITLE4=Firestarter
TTITLE5=I Don't Wanna Be A Star
TTITLE6=Lucky love
TTITLE7=X-Files
TTITLE8=Inside Out
TTITLE9=Knockin'
TTITLE10=Stars
TTITLE11=Jump for Joy
EXTD=
EXTT0=
EXTT1=
EXTT2=
EXTT3=
EXTT4=
EXTT5=
EXTT6=
EXTT7=
EXTT8=
EXTT9=
EXTT10=
EXTT11=
PLAYORDER=
